# xmcd CD database file
#
# Track frame offsets:
#	150
#	18372
#	37924
#	61869
#	87591
#	105887
#	114598
#	131919
#	153551
#	163575
#	186952
#	205532
#	222203
#	240702
#	261821
#
# Disc length: 3984 seconds
#
# Revision: 0
# Processed by: cddbd v1.5.2PL0 Copyright (c) Steve Scherf et al.
# Submitted via: CDex 1.51
#
DISCID=c60f8e0f
DTITLE=Various Artist - Uncut: Sun It Rises - 15 Tracks Of Folk And Cosmic Americana Classics 2011.05
DYEAR=2011
DGENRE=Americana
TTITLE0=Girls/Heartbreaker
TTITLE1=Dungen/Fredag
TTITLE2=Nic Jones/Courting Is A Pleasure
TTITLE3=The Luyas/Cats In A Bag
TTITLE4=William Tyler/The Green Pastures
TTITLE5=Mountain Man/Bathtub
TTITLE6=The Clientele/Since K Got Over Me
TTITLE7=PG Six/Old Man On The Mountain
TTITLE8=Sandy Denny and The Strawbs/Nothing Else Will Do Babe
TTITLE9=John Jacob Niles/The Ballad Of Barberry Ellen
TTITLE10=Ali Farka Touré and Toumani Diabaté/Sabu Yerkoy
TTITLE11=Pearly Gate Music/Gossamer Hair
TTITLE12=Frank Fairfield/The Dying Cowboy
TTITLE13=Lower Dens/Tea Lights
TTITLE14=Roy Harper/One For All
EXTD=YEAR: 2011
EXTT0=
EXTT1=
EXTT2=
EXTT3=
EXTT4=
EXTT5=
EXTT6=
EXTT7=
EXTT8=
EXTT9=
EXTT10=
EXTT11=
EXTT12=
EXTT13=
EXTT14=
PLAYORDER=
